<mxfile host="app.diagrams.net" modified="2023-04-12T19:13:30.394Z" agent="Mozilla/5.0 (Windows NT 10.0; Win64; x64) AppleWebKit/537.36 (KHTML, like Gecko) Chrome/111.0.0.0 Safari/537.36" version="21.1.5" etag="_76w14cuBwGpH8_haq68" type="github">
  <diagram name="Страница 1" id="zkWiObhYx5CPHHhI6jUK">
    <mxGraphModel>
      <root>
        <mxCell id="0" />
        <mxCell id="1" parent="0" />
      </root>
    </mxGraphModel>
  </diagram>
</mxfile>
